# xmcd
#
# Track frame offsets:
#	150
#	20713
#	45201
#	70323
#	91798
#	111901
#	133084
#	154448
#	181273
#	209990
#	226402
#	243708
#
# Disc length: 3570 seconds
#
# Revision: 13041664
# Processed by: cddbd v1.5.2PL0 Copyright (c) Steve Scherf et al.
# Submitted via: EZCDAudioConverter 8.0.2.1
#
DISCID=ad0df00c
DTITLE=Tuấn Vũ - Bất Hủ 2
DYEAR=2000
DGENRE=Miscellaneous
TTITLE0=Đôi mắt người xưa
TTITLE1=Người yêu cô đơn
TTITLE2=Mùa xuân lá khô
TTITLE3=Hoa xứ nhà nàng
TTITLE4=Lá thư cuối cùng
TTITLE5=Cánh buồm chuyển bến
TTITLE6=Lá thư đô thị
TTITLE7=Hương Sơ ri
TTITLE8=Mưa chiều kỷ niệm
TTITLE9=Trăng thề
TTITLE10=Chuyện hẹn hò
TTITLE11=Dấu chân kỷ niệm
EXTD=
EXTT0=
EXTT1=
EXTT2=
EXTT3=
EXTT4=
EXTT5=
EXTT6=
EXTT7=
EXTT8=
EXTT9=
EXTT10=
EXTT11=
PLAYORDER=
